<svg viewBox="0 0 56 33" xmlns="http://www.w3.org/2000/svg">
  <title>onlyLogo</title>
  <g fill="none" fill-rule="evenodd">
    <path d="M3.706 6.284c0-.968.07-1.793.214-2.475.142-.683.396-1.24.76-1.668.362-.428.85-.73 1.467-.907.617-.177 1.398-.254 2.343-.232-1.78.617-2.673 1.948-2.673 3.994v6.335c0 .638-.033 1.22-.098 1.75-.068.527-.2 1-.398 1.418a3.14 3.14 0 0 1-.824 1.073c-.353.296-.814.523-1.387.677v.066c1.08.242 1.8.738 2.163 1.485.363.748.544 1.738.544 2.97v6.8c0 1.12.22 1.99.66 2.605.44.616 1.19 1.078 2.245 1.386v.068c-.97.02-1.778-.055-2.426-.232-.65-.175-1.166-.462-1.55-.858-.386-.396-.656-.896-.81-1.502-.154-.605-.23-1.325-.23-2.16v-6.733c0-1.012-.17-1.848-.512-2.508-.342-.66-1.072-1.1-2.194-1.32v-.066c.615-.177 1.1-.38 1.45-.61.354-.232.623-.502.81-.81a2.77 2.77 0 0 0 .363-1.088c.055-.418.083-.903.083-1.453V6.284zM52.722 12.29c0 .55.028 1.034.083 1.452.055.418.176.78.363 1.09.187.308.456.577.81.808.35.23.835.434 1.45.61v.066c-1.122.22-1.852.66-2.194 1.32-.34.66-.512 1.497-.512 2.508v6.732c0 .836-.076 1.557-.23 2.162-.154.605-.424 1.106-.81 1.5-.384.398-.9.683-1.55.86-.648.175-1.457.25-2.426.23v-.066c1.056-.308 1.805-.77 2.245-1.386.44-.616.66-1.485.66-2.607v-6.8c0-1.23.182-2.22.545-2.97.363-.746 1.084-1.24 2.162-1.484v-.066c-.573-.153-1.034-.38-1.387-.677a3.136 3.136 0 0 1-.824-1.072 4.66 4.66 0 0 1-.397-1.418 14.368 14.368 0 0 1-.1-1.75V4.998c0-2.046-.89-3.377-2.672-3.993.945-.022 1.726.056 2.343.23.617.177 1.106.48 1.47.91.362.427.616.984.758 1.666.144.68.214 1.506.214 2.474v6.006zM16.658 14.91h17.648V7.458H16.658v7.454z" fill="#231815"/>
    <path d="M17.158 24.674h27.2V18.22h-27.2v6.454z" fill="#FEFEFE"/>
    <path d="M16.658 25.174h28.2V17.72h-28.2v7.454zm1-1h26.2V18.72h-26.2v5.454zM12.918 26.882h.892V5.748h-.892v21.134z" fill="#231815"/>
  </g>
</svg>
